<svg width="25" height="14" viewBox="0 0 25 14" fill="none" xmlns="http://www.w3.org/2000/svg">
<path fill-rule="evenodd" clip-rule="evenodd" d="M-3.0598e-07 7C-3.14995e-07 6.79375 0.0790114 6.59595 0.219654 6.45011C0.360297 6.30426 0.55105 6.22233 0.749949 6.22233L22.4383 6.22233L17.7181 1.32924C17.5773 1.18322 17.4982 0.985163 17.4982 0.778651C17.4982 0.57214 17.5773 0.374088 17.7181 0.228062C17.859 0.0820362 18.05 1.64685e-07 18.2491 1.5598e-07C18.4483 1.47275e-07 18.6393 0.0820362 18.7801 0.228062L24.7797 6.44941C24.8495 6.52165 24.9049 6.60747 24.9427 6.70195C24.9805 6.79642 25 6.89771 25 7C25 7.10229 24.9805 7.20357 24.9427 7.29805C24.9049 7.39253 24.8495 7.47835 24.7797 7.55059L18.7801 13.7719C18.6393 13.918 18.4483 14 18.2491 14C18.05 14 17.859 13.918 17.7181 13.7719C17.5773 13.6259 17.4982 13.4279 17.4982 13.2213C17.4982 13.0148 17.5773 12.8168 17.7181 12.6708L22.4383 7.77767L0.749949 7.77767C0.55105 7.77767 0.360297 7.69574 0.219654 7.54989C0.0790115 7.40405 -2.96964e-07 7.20625 -3.0598e-07 7Z" fill="#005586"/>
</svg>
