<svg width="32" height="24" viewBox="0 0 32 24" fill="none" xmlns="http://www.w3.org/2000/svg">
<path fill-rule="evenodd" clip-rule="evenodd" d="M3 12C3 11.7937 3.07901 11.5959 3.21965 11.4501C3.3603 11.3043 3.55105 11.2223 3.74995 11.2223L25.4383 11.2223L20.7181 6.32924C20.5773 6.18322 20.4982 5.98516 20.4982 5.77865C20.4982 5.57214 20.5773 5.37409 20.7181 5.22806C20.859 5.08204 21.05 5 21.2491 5C21.4483 5 21.6393 5.08204 21.7801 5.22806L27.7797 11.4494C27.8495 11.5216 27.9049 11.6075 27.9427 11.7019C27.9805 11.7964 28 11.8977 28 12C28 12.1023 27.9805 12.2036 27.9427 12.2981C27.9049 12.3925 27.8495 12.4784 27.7797 12.5506L21.7801 18.7719C21.6393 18.918 21.4483 19 21.2491 19C21.05 19 20.859 18.918 20.7181 18.7719C20.5773 18.6259 20.4982 18.4279 20.4982 18.2213C20.4982 18.0148 20.5773 17.8168 20.7181 17.6708L25.4383 12.7777L3.74995 12.7777C3.55105 12.7777 3.3603 12.6957 3.21965 12.5499C3.07901 12.4041 3 12.2063 3 12Z" fill="#3C3C3C"/>
</svg>
