<svg width="180" height="79" viewBox="0 0 180 79" fill="none" xmlns="http://www.w3.org/2000/svg">
<g clip-path="url(#clip0_18_1457)">
<path d="M136.428 38.8804V42.2232H122.217V38.8804H136.428ZM131.425 22.8911C131.761 22.8888 132.088 23.0032 132.35 23.2147C132.618 23.3998 132.817 23.6681 132.916 23.978L141.722 50.6864H137.522L130.577 28.3303C130.466 27.9246 130.359 27.5236 130.252 27.1227C130.146 26.7217 130.035 26.345 129.928 25.9923H128.799C128.688 26.345 128.582 26.7169 128.475 27.1227C128.368 27.5284 128.247 27.9246 128.112 28.3303L121.166 50.6864H117.006L125.811 23.9828C125.91 23.6743 126.108 23.4064 126.373 23.2196C126.636 23.007 126.965 22.8925 127.303 22.8959L131.425 22.8911ZM103.648 34.6536V37.7548H98.3202V34.6536H103.648ZM99.531 22.8911V31.4316C99.5331 32.2382 99.4927 33.0445 99.4099 33.8469C99.3279 34.6199 99.1936 35.3865 99.0079 36.1414C99.1387 36.895 99.2598 37.6582 99.3712 38.436C99.4744 39.1706 99.5278 39.9114 99.531 40.6532V50.6864H95.511V22.8911H99.531ZM114.792 22.8911C114.231 24.4755 113.706 25.9392 113.218 27.2821C112.763 28.596 112.288 29.7795 111.804 30.8278C111.37 31.7636 110.842 32.6537 110.23 33.4846C109.703 34.2039 109.046 34.8183 108.293 35.2961C107.501 35.7475 106.62 36.0227 105.711 36.1028V36.2622C106.675 36.3464 107.609 36.6346 108.453 37.1075C109.268 37.5674 109.973 38.2007 110.516 38.9625C111.194 39.8442 111.763 40.8043 112.211 41.8222C112.72 42.9477 113.233 44.2665 113.746 45.7688C114.26 47.2711 114.875 48.8845 115.519 50.6815H111.281C110.525 48.5335 109.852 46.6544 109.261 45.0442C108.792 43.6443 108.184 42.2947 107.445 41.0155C106.922 40.0485 106.175 39.2203 105.266 38.6002C104.327 38.0063 103.228 37.7114 102.117 37.7548V34.6536C103.176 34.6882 104.219 34.3927 105.101 33.8082C105.995 33.152 106.74 32.314 107.285 31.3495C107.965 30.1698 108.532 28.9294 108.98 27.6444C109.516 26.2242 110.081 24.6397 110.676 22.8911H114.792ZM74.0792 22.8911L79.4311 38.721C79.4845 38.9121 79.6011 39.0796 79.762 39.1962C79.9229 39.3129 80.1187 39.3718 80.3174 39.3634H82.2548L82.9813 42.6289H79.1405C78.4551 42.6621 77.7768 42.4778 77.2031 42.1024C76.7089 41.6988 76.3562 41.149 76.1957 40.5324L69.8557 22.8911H74.0792ZM91.6848 22.8911L84.3326 43.7544C83.9067 44.9708 83.3953 46.1556 82.8021 47.3001C82.3127 48.2767 81.6403 49.1507 80.8211 49.8748C80.0085 50.5433 79.0051 50.9388 77.9538 51.0052C77.3755 51.0278 76.7964 51.0132 76.2199 50.9617C75.5706 50.9362 74.9236 50.87 74.2826 50.7637C73.6384 50.6526 73.0717 50.5463 72.5874 50.44L73.033 47.4982C74.3504 47.6109 75.3998 47.6656 76.1812 47.6624C76.8006 47.6939 77.4182 47.5711 77.9781 47.3049C78.4704 47.0318 78.8763 46.6269 79.1502 46.1359C79.5643 45.3812 79.9284 44.6002 80.2399 43.7979L81.1698 41.344L81.6542 39.8948L87.5485 22.8959L91.6848 22.8911ZM63.7386 38.8804V42.2232H49.4991V38.8804H63.7386ZM58.7305 22.8911C59.0688 22.8877 59.3977 23.0022 59.6605 23.2147C59.9286 23.3998 60.1279 23.6681 60.2271 23.978L69.0033 50.6864H64.8041L57.8587 28.3352L57.5391 27.1275C57.4277 26.7217 57.3211 26.3498 57.2146 25.9972H56.0812C55.9747 26.3498 55.8681 26.7217 55.7616 27.1275C55.655 27.5333 55.5291 27.9294 55.3983 28.3352L48.4335 50.6864H44.2925L53.0929 23.9828C53.1956 23.6747 53.3941 23.4074 53.6595 23.2196C53.9223 23.007 54.2512 22.8925 54.5895 22.8959L58.7305 22.8911ZM40.6067 22.8911V50.6864H36.5431V22.8911H40.6067ZM37.0129 34.1705V37.5133H23.9358V34.1705H37.0129ZM24.2167 22.8911V50.6864H20.1919V22.8911H24.2167Z" fill="white"/>
<path d="M121.937 1.28377C121.472 1.26395 121.009 1.35329 120.585 1.54461C120.239 1.73942 119.983 2.06209 119.873 2.44311C119.708 3.0074 119.634 3.59456 119.655 4.18213C119.636 4.76965 119.709 5.35657 119.873 5.92114C119.983 6.30216 120.239 6.62484 120.585 6.81964C121.009 7.01096 121.472 7.10032 121.937 7.0805C122.397 7.10152 122.855 7.01206 123.273 6.81964C123.62 6.62484 123.875 6.30216 123.985 5.92114C124.15 5.35657 124.223 4.76965 124.203 4.18213C124.225 3.59456 124.151 3.0074 123.985 2.44311C123.875 2.06209 123.62 1.73942 123.273 1.54461C122.855 1.35219 122.397 1.26275 121.937 1.28377ZM121.937 0.486711C122.586 0.457202 123.233 0.581348 123.826 0.849006C124.304 1.09458 124.668 1.51524 124.843 2.02285C125.269 3.431 125.269 4.93327 124.843 6.34141C124.668 6.84903 124.304 7.26967 123.826 7.51525C123.233 7.78291 122.586 7.90705 121.937 7.87754C121.283 7.9059 120.631 7.78186 120.033 7.51525C119.553 7.26786 119.185 6.84853 119.002 6.34141C118.595 4.9305 118.595 3.43377 119.002 2.02285C119.185 1.51574 119.553 1.0964 120.033 0.849006C120.631 0.582398 121.283 0.458353 121.937 0.486711ZM111.911 0.675112V7.69398H111.039V0.675112H111.911ZM113.785 0.588164C114.366 0.573668 114.946 0.627164 115.514 0.747568C115.88 0.815305 116.206 1.01693 116.43 1.31275C116.644 1.66002 116.746 2.065 116.72 2.4721C116.749 2.88135 116.619 3.28587 116.357 3.60246C116.038 3.88956 115.624 4.04948 115.195 4.0517V4.09517C115.45 4.08907 115.704 4.13473 115.941 4.22938C116.179 4.32404 116.394 4.46573 116.575 4.64587C116.857 5.02013 116.997 5.48265 116.967 5.95014C116.99 6.34591 116.894 6.73943 116.691 7.0805C116.472 7.36424 116.157 7.5597 115.805 7.63118C115.271 7.75084 114.725 7.80438 114.178 7.7906C113.703 7.7906 113.286 7.7906 112.928 7.7906C112.57 7.7906 112.247 7.78094 111.959 7.76161L111.029 7.71813L111.204 7.03702L112.25 7.06601H114.052C114.442 7.07474 114.831 7.04071 115.214 6.96455C115.463 6.91412 115.685 6.77504 115.839 6.57327C115.979 6.33701 116.044 6.06451 116.028 5.79072C116.05 5.58518 116.016 5.3775 115.931 5.18903C115.846 5.00056 115.712 4.83809 115.543 4.71832C115.045 4.48392 114.494 4.38398 113.945 4.42849H111.17V3.76186H113.945C114.311 3.76104 114.675 3.72709 115.035 3.66042C115.268 3.6174 115.475 3.48793 115.616 3.29813C115.755 3.07751 115.821 2.81904 115.805 2.55904C115.823 2.29232 115.751 2.02729 115.602 1.80547C115.438 1.60769 115.203 1.48259 114.948 1.45767C114.545 1.38181 114.136 1.34782 113.727 1.35623H112.637C112.315 1.35623 112.029 1.35623 111.78 1.35623C111.581 1.35398 111.382 1.36366 111.184 1.38521L111.01 0.689603C111.301 0.660619 111.572 0.641299 111.824 0.631638C112.076 0.621977 112.356 0.621977 112.666 0.631638C112.996 0.602654 113.369 0.588164 113.785 0.588164ZM109.426 0.660621V1.41419H103.188V0.646129L109.426 0.660621ZM106.782 0.660621V7.69398H105.866V0.660621H106.782ZM99.9042 0.486711C100.108 0.486711 100.335 0.496386 100.587 0.515708C100.845 0.535884 101.103 0.569742 101.357 0.617147C101.604 0.652301 101.848 0.710517 102.084 0.791042L101.938 1.3997C101.648 1.36106 101.325 1.33208 100.97 1.31275C100.615 1.29343 100.314 1.28377 100.069 1.28377C99.5714 1.26555 99.0758 1.35451 98.6159 1.54461C98.4326 1.6324 98.2688 1.75583 98.1341 1.90763C97.9994 2.05944 97.8964 2.23657 97.8312 2.42862C97.655 2.99085 97.5763 3.57899 97.5988 4.16764C97.5775 4.761 97.6561 5.3537 97.8312 5.92114C97.9652 6.31131 98.2468 6.63378 98.6159 6.81964C99.0783 6.99966 99.5728 7.0835 100.069 7.06601H100.621L101.377 7.02252C101.648 7.00319 101.9 6.97421 102.132 6.93557L102.219 7.55872C101.854 7.67041 101.48 7.74804 101.101 7.7906C100.711 7.848 100.317 7.87706 99.9236 7.87754C99.2585 7.9059 98.5958 7.78196 97.9862 7.51525C97.5028 7.27499 97.1289 6.86062 96.9401 6.35591C96.511 4.93832 96.511 3.42595 96.9401 2.00836C97.1232 1.50024 97.4988 1.08399 97.9862 0.849006C98.5834 0.586447 99.2326 0.462567 99.8848 0.486711H99.9042ZM90.4209 0.660621V7.69398H89.52V0.660621H90.4209ZM92.3243 3.53C92.8789 3.5109 93.4331 3.57937 93.9662 3.73288C94.1449 3.78079 94.3118 3.86466 94.4567 3.9793C94.6016 4.09394 94.7215 4.23694 94.809 4.3995C95.148 5.21606 95.148 6.1335 94.809 6.95006C94.6234 7.26813 94.3213 7.50193 93.9662 7.6022C93.4784 7.73183 92.9743 7.79041 92.4696 7.7761C92.024 7.7761 91.6366 7.7761 91.3072 7.7761C90.9779 7.7761 90.6824 7.76643 90.4209 7.74711L89.5636 7.70363L89.738 7.00803L90.6824 7.03702C91.1474 7.03702 91.6995 7.03702 92.3389 7.03702C92.6913 7.04694 93.0434 7.00791 93.385 6.92108C93.5013 6.89305 93.6104 6.84121 93.7054 6.76885C93.8005 6.6965 93.8794 6.60523 93.9372 6.50082C94.1601 5.95249 94.1601 5.33911 93.9372 4.79078C93.8828 4.68503 93.8069 4.59175 93.7143 4.51689C93.6218 4.44204 93.5145 4.38725 93.3996 4.35603C93.0503 4.25618 92.6874 4.21216 92.3243 4.22561H89.7089V3.53H92.3243ZM87.0693 0.660621V7.69398H86.1394V0.660621H87.0693ZM86.8804 0.660621V1.41419H84.3667C84.1147 1.39307 83.8644 1.47109 83.6692 1.63158C83.5089 1.8359 83.4129 2.08298 83.3932 2.34168C83.3447 2.78609 83.2866 3.24499 83.2188 3.71839C83.151 4.19179 83.0784 4.6507 83.0009 5.09511C82.922 5.50285 82.8002 5.90116 82.6376 6.28344C82.5392 6.55887 82.3915 6.81422 82.2017 7.03702C82.0198 7.24786 81.7975 7.42031 81.5479 7.54423C81.2744 7.67531 80.9786 7.75397 80.6761 7.7761L80.5598 7.06601C80.7727 6.99684 80.9774 6.9045 81.1701 6.79066C81.3226 6.69568 81.4557 6.57275 81.5624 6.42836C81.6677 6.29513 81.7556 6.14903 81.8239 5.99361C81.9474 5.70966 82.04 5.41328 82.1 5.1096C82.1775 4.78756 82.2405 4.44459 82.2889 4.08068C82.3373 3.71678 82.3809 3.37865 82.4197 3.06627L82.5214 2.21124C82.552 1.78684 82.7223 1.38441 83.0057 1.06639C83.1707 0.924678 83.3623 0.817101 83.5693 0.749927C83.7763 0.682753 83.9947 0.657325 84.2117 0.675112L86.8804 0.660621ZM76.5253 0.486711C77.3021 0.423858 78.0781 0.617353 78.7339 1.03741C78.9754 1.23427 79.1671 1.48511 79.2933 1.76962C79.4195 2.05413 79.4767 2.36429 79.4604 2.67497C79.5018 3.18468 79.3742 3.69385 79.0971 4.12416C78.9455 4.30317 78.7526 4.44284 78.5349 4.53118C78.3173 4.61952 78.0814 4.65391 77.8475 4.63138H73.7355V3.90679H77.6441C77.7837 3.9226 77.9249 3.89826 78.051 3.83663C78.1772 3.775 78.283 3.67866 78.3561 3.55898C78.4901 3.28955 78.5502 2.98958 78.5304 2.68948C78.5453 2.48468 78.5088 2.27939 78.4243 2.09217C78.3397 1.90495 78.2098 1.74168 78.0461 1.61709C77.5969 1.35994 77.0804 1.24379 76.564 1.28377C76.1039 1.26275 75.6455 1.35219 75.2273 1.54461C74.8836 1.73561 74.6282 2.05276 74.5153 2.42862C74.3617 2.97036 74.2931 3.53251 74.3119 4.09517C74.2878 4.71349 74.3714 5.33128 74.5589 5.92114C74.6928 6.31131 74.9744 6.63378 75.3435 6.81964C75.7904 7.00083 76.2709 7.08483 76.7529 7.06601C77.1791 7.06601 77.6102 7.0515 78.0461 7.02252C78.482 6.99353 78.8646 6.95006 79.194 6.8921L79.2812 7.51525C79.0377 7.6078 78.7841 7.67104 78.5256 7.70363C78.2027 7.75194 77.8798 7.7906 77.5569 7.81958C77.234 7.84856 76.9337 7.86305 76.6561 7.86305C76.0069 7.88845 75.3606 7.76449 74.7671 7.50076C74.2803 7.24662 73.9032 6.82411 73.7064 6.31243C73.4706 5.61769 73.3623 4.88623 73.3868 4.15315C73.3584 3.41512 73.4668 2.6782 73.7064 1.97938C73.888 1.48312 74.2515 1.07398 74.7236 0.834515C75.2898 0.583398 75.906 0.464444 76.5253 0.486711ZM72.2341 0.660621V1.41419H66.0007V0.646129L72.2341 0.660621ZM69.5896 0.660621V7.69398H68.6742V0.660621H69.5896ZM63.9325 3.39956V4.09517L60.4889 4.12416C60.3396 4.11621 60.1902 4.13915 60.0502 4.19153C59.9102 4.2439 59.7825 4.32457 59.6752 4.42849C59.4979 4.6495 59.4099 4.9286 59.4282 5.21104V5.8197C59.4153 5.98006 59.4358 6.14134 59.4883 6.29345C59.5408 6.44555 59.6242 6.58523 59.7333 6.70371C59.9894 6.91483 60.3175 7.01872 60.6487 6.99353C60.9991 6.99714 61.3476 6.94329 61.6804 6.83413C62.0689 6.71327 62.44 6.54279 62.7847 6.32692C63.142 6.1116 63.4679 5.84827 63.7533 5.54435V6.2448C63.6139 6.42637 63.4511 6.58879 63.269 6.72786C63.032 6.9179 62.7792 7.08757 62.5134 7.23506C62.2156 7.40661 61.8986 7.54281 61.569 7.64085C61.2257 7.74778 60.8679 7.80153 60.5083 7.80025C60.1382 7.80779 59.771 7.73356 59.4331 7.58287C59.1412 7.44565 58.898 7.22331 58.7356 6.94524C58.5728 6.62195 58.493 6.26345 58.5031 5.90183V5.09028C58.4889 4.85999 58.5249 4.62936 58.6085 4.41423C58.6921 4.1991 58.8214 4.00457 58.9875 3.84399C59.3738 3.52496 59.8672 3.36436 60.3678 3.39474L63.9325 3.39956ZM62.1599 0.501202C62.5774 0.488758 62.993 0.56278 63.3804 0.718585C63.7118 0.8443 63.9857 1.08655 64.1505 1.3997C64.3431 1.79116 64.4331 2.22493 64.412 2.66048V7.69398H63.6855L63.5402 6.15785L63.4821 6.02741V2.64599C63.5077 2.28207 63.3992 1.92136 63.177 1.63158C63.0128 1.49533 62.8224 1.39416 62.6174 1.33434C62.4125 1.27451 62.1974 1.2573 61.9855 1.28377C61.5593 1.28377 61.0653 1.30309 60.5034 1.34174C59.9416 1.38038 59.3943 1.42868 58.8615 1.48665L58.7744 0.805533C59.0972 0.747566 59.4411 0.699265 59.806 0.660621C60.1709 0.621976 60.5583 0.583336 60.9684 0.544691C61.3785 0.506046 61.7821 0.486711 62.1792 0.486711L62.1599 0.501202ZM56.096 0.675112V7.69398H55.2145V0.660621L56.096 0.675112ZM56.9968 7.63118V9.79046H56.3866L56.2849 7.63118H56.9968ZM56.9968 6.96455V7.69398H49.7318V6.9549L56.9968 6.96455ZM50.4292 7.63118L50.3275 9.79046H49.7173V7.63118H50.4292ZM55.9216 0.675112V1.41419H53.437C53.3104 1.39726 53.1815 1.40876 53.06 1.44786C52.9384 1.48697 52.8271 1.55267 52.7342 1.64019C52.6414 1.7277 52.5693 1.83481 52.5233 1.95367C52.4773 2.07253 52.4585 2.20015 52.4683 2.32718C52.4325 2.98837 52.3548 3.64664 52.2358 4.29806C52.1315 4.91094 51.9693 5.51261 51.7515 6.09505C51.5257 6.66553 51.2244 7.20329 50.8555 7.69398H50.0418C50.42 7.16079 50.7277 6.58116 50.9572 5.96945C51.1761 5.36255 51.3383 4.73673 51.4415 4.10001C51.5482 3.46021 51.621 2.81523 51.6595 2.16777C51.655 1.74661 51.8167 1.34059 52.1099 1.03741C52.44 0.755778 52.8681 0.615202 53.3014 0.646129L55.9216 0.675112ZM45.2372 0.573673C45.8466 0.558899 46.4559 0.612364 47.0534 0.733077C47.4347 0.797233 47.7792 0.998263 48.0221 1.29826C48.2464 1.63099 48.3537 2.02854 48.3272 2.42862C48.3538 2.83987 48.2412 3.24811 48.0076 3.58797C47.8547 3.74412 47.6714 3.86751 47.469 3.95057C47.2667 4.03363 47.0494 4.07462 46.8306 4.07103V4.1145C47.3228 4.10948 47.7974 4.29674 48.1529 4.63621C48.4535 5.01847 48.5988 5.49966 48.5597 5.98394C48.5807 6.37234 48.4791 6.75753 48.2691 7.08532C48.0281 7.37564 47.6949 7.57507 47.3246 7.6505C46.7629 7.78097 46.1867 7.8394 45.6101 7.8244C45.2032 7.8244 44.7625 7.80991 44.2879 7.78093C43.8132 7.75194 43.3676 7.70364 42.9511 7.63601L43.0383 6.92591C43.3095 6.9549 43.6776 6.98388 44.1426 7.01286C44.6075 7.04184 45.0725 7.0515 45.5374 7.04184C46.0945 7.08826 46.6543 6.99355 47.1648 6.7665C47.3162 6.65789 47.4362 6.5114 47.5128 6.34178C47.5893 6.17217 47.6196 5.98542 47.6007 5.80037C47.6168 5.51742 47.5512 5.23579 47.4118 4.98884C47.2584 4.77723 47.0297 4.63208 46.7725 4.58307C46.3817 4.49543 45.9815 4.45649 45.581 4.46714H44.0215V3.78602H45.5907C45.9663 3.79561 46.3418 3.76157 46.7095 3.68458C46.9396 3.63543 47.1422 3.50069 47.2762 3.3078C47.3943 3.08515 47.4495 2.83471 47.436 2.58321C47.4568 2.31619 47.385 2.05015 47.2326 1.82962C47.0559 1.63355 46.8126 1.50967 46.5497 1.48183C46.1134 1.40448 45.6705 1.37049 45.2275 1.38038C44.8691 1.38038 44.5058 1.39004 44.1377 1.40936C43.8409 1.42247 43.545 1.4515 43.2514 1.49632L43.1642 0.786221C43.5282 0.710727 43.8973 0.662279 44.2685 0.641294C44.6366 0.586547 44.9659 0.559182 45.2565 0.559182L45.2372 0.573673ZM41.0525 0.675112V7.69398H40.2291V2.22573L40.2582 1.77649H40.2291C40.1632 1.90587 40.0905 2.03164 40.0112 2.15328C39.924 2.28853 39.8416 2.4093 39.7642 2.51557L35.7974 7.69398H35.0273V0.660621H35.8846V5.68928C35.8846 5.8342 35.8846 5.97911 35.8846 6.12403C35.8846 6.26895 35.8846 6.42997 35.8846 6.60709C35.9621 6.47184 36.0444 6.33658 36.1316 6.20132C36.2093 6.0786 36.2968 5.96229 36.3932 5.85352L40.3308 0.679947L41.0525 0.675112Z" fill="white"/>
<path d="M97.991 65.2893C98.1947 65.2737 98.3981 65.3227 98.5722 65.4294C98.6433 65.4656 98.7056 65.5167 98.7549 65.5793C98.8042 65.6418 98.8394 65.7143 98.858 65.7917C98.893 65.9885 98.8712 66.1912 98.795 66.3762L94.373 79.1869H93.0411L97.1434 67.3665C97.2064 67.1926 97.2693 67.0331 97.3226 66.8834C97.3754 66.7192 97.4368 66.558 97.5067 66.4003H90.2416L90.1835 65.2748L97.991 65.2893ZM83.4609 65.0477C84.2142 65.0353 84.9666 65.1082 85.7034 65.2651C86.2741 65.366 86.7897 65.6676 87.1564 66.1153C87.523 66.6596 87.6938 67.3119 87.6407 67.9654C87.6457 68.5394 87.5574 69.1104 87.3792 69.6562C87.1764 70.238 86.8909 70.7879 86.5316 71.2889C86.0753 71.9524 85.5753 72.585 85.035 73.1825L80.7971 77.9744L81.9498 77.9358C82.3518 77.9358 82.7441 77.9358 83.117 77.9358H88.188V79.1869H79.1988V78.3802C79.1969 78.2724 79.2116 78.1648 79.2423 78.0614C79.2809 77.9547 79.342 77.8575 79.4215 77.7764L83.7418 72.8637C84.5007 72.0556 85.1653 71.1643 85.7228 70.2068C86.1273 69.5312 86.3369 68.7572 86.3282 67.9703C86.3392 67.551 86.1963 67.1421 85.9262 66.8206C85.6608 66.5641 85.3225 66.3954 84.9575 66.3375C84.4585 66.2517 83.9527 66.2113 83.4464 66.2168C83.0298 66.2168 82.623 66.2168 82.2355 66.2602C81.8481 66.3037 81.4267 66.3037 80.9811 66.3617C80.5355 66.4197 80.0463 66.4921 79.4651 66.6032L79.3441 65.5743C79.9931 65.4245 80.5452 65.3183 81.0005 65.2507C81.4558 65.183 81.9013 65.1202 82.2937 65.0912C82.686 65.0622 83.0783 65.0477 83.4803 65.0477H83.4609ZM76.3799 65.2893C76.5851 65.2746 76.7898 65.3236 76.966 65.4294C77.0363 65.4659 77.0978 65.5172 77.1464 65.5797C77.1949 65.6423 77.2292 65.7146 77.2469 65.7917C77.284 65.988 77.2638 66.1909 77.1888 66.3762L72.7861 79.1869H71.4542L75.5565 67.3616C75.6243 67.1877 75.6825 67.0283 75.7357 66.8786C75.789 66.7288 75.852 66.5646 75.9198 66.3955H68.6547L68.5966 65.27L76.3799 65.2893ZM65.3855 65.2893V79.1869H64.0536V67.666C64.0536 67.4776 64.0536 67.2891 64.0536 67.1008C64.0536 66.9124 64.0875 66.7288 64.1117 66.5549L60.5809 67.6853L60.3774 66.7191L64.0342 65.27L65.3855 65.2893Z" fill="white"/>
<path d="M20.8652 73.1584H53.2285V71.7092H20.8652V73.1584ZM53.2285 73.1584C53.4212 73.1584 53.606 73.0821 53.7422 72.9462C53.8785 72.8103 53.955 72.626 53.955 72.4338C53.955 72.2416 53.8785 72.0573 53.7422 71.9215C53.606 71.7856 53.4212 71.7092 53.2285 71.7092V73.1584ZM20.8652 71.7092C20.6725 71.7092 20.4877 71.7856 20.3515 71.9215C20.2152 72.0573 20.1387 72.2416 20.1387 72.4338C20.1387 72.626 20.2152 72.8103 20.3515 72.9462C20.4877 73.0821 20.6725 73.1584 20.8652 73.1584V71.7092Z" fill="white"/>
<path d="M108.355 73.1584H140.719V71.7092H108.355V73.1584ZM140.719 73.1584C140.911 73.1584 141.096 73.0821 141.232 72.9462C141.369 72.8103 141.445 72.626 141.445 72.4338C141.445 72.2416 141.369 72.0573 141.232 71.9215C141.096 71.7856 140.911 71.7092 140.719 71.7092V73.1584ZM108.355 71.7092C108.163 71.7092 107.978 71.7856 107.842 71.9215C107.705 72.0573 107.629 72.2416 107.629 72.4338C107.629 72.626 107.705 72.8103 107.842 72.9462C107.978 73.0821 108.163 73.1584 108.355 73.1584V71.7092Z" fill="white"/>
</g>
<defs>
<clipPath id="clip0_18_1457">
<rect width="180" height="79" fill="white"/>
</clipPath>
</defs>
</svg>
