<svg width="32" height="38" viewBox="0 0 32 38" fill="none" xmlns="http://www.w3.org/2000/svg">
<path d="M24 4L32 12H24V4Z" fill="#005586"/>
<path d="M0 7C0 5.34315 1.15127 4 2.57143 4H21.4286C22.8487 4 24 5.34315 24 7V36.9512C24 37.7299 23.2959 38.2363 22.6975 37.8881L12.4025 31.8973C12.1491 31.7499 11.8509 31.7499 11.5975 31.8973L1.30249 37.8881C0.704083 38.2363 0 37.7299 0 36.9512V7Z" fill="#2874AE"/>
<g clip-path="url(#clip0_14_837)">
<path fill-rule="evenodd" clip-rule="evenodd" d="M4.63534 21.6531C4.57662 21.6031 4.52808 21.5418 4.49251 21.4727C4.45694 21.4035 4.43503 21.3279 4.42803 21.2501C4.42103 21.1723 4.42908 21.0938 4.45171 21.0192C4.47435 20.9446 4.51113 20.8753 4.55995 20.8152L15.1006 7.89847C15.1994 7.77723 15.3413 7.70116 15.495 7.68698C15.6487 7.6728 15.8016 7.72168 15.92 7.82286C16.0385 7.92404 16.1128 8.06925 16.1267 8.22652C16.1405 8.3838 16.0928 8.54026 15.9939 8.6615L5.45102 21.5774C5.35245 21.6978 5.21129 21.7734 5.05843 21.7876C4.90557 21.8017 4.75344 21.7534 4.63534 21.6531Z" fill="white"/>
<path fill-rule="evenodd" clip-rule="evenodd" d="M11.4066 23.4676C11.3407 23.428 11.2831 23.3755 11.2371 23.3131C11.1911 23.2508 11.1575 23.1797 11.1383 23.104C11.1191 23.0284 11.1147 22.9496 11.1253 22.8722C11.1359 22.7947 11.1613 22.7202 11.2 22.6529L18.6988 9.60113C18.777 9.46506 18.9048 9.36634 19.0541 9.3267C19.2034 9.28705 19.3619 9.30973 19.4949 9.38973C19.6278 9.46974 19.7243 9.60052 19.763 9.75331C19.8018 9.9061 19.7796 10.0684 19.7014 10.2045L12.205 23.2562C12.1663 23.3239 12.1149 23.3831 12.0538 23.4304C11.9926 23.4777 11.923 23.5122 11.8488 23.5319C11.7746 23.5515 11.6973 23.5559 11.6214 23.5449C11.5455 23.5339 11.4725 23.5076 11.4066 23.4676Z" fill="white"/>
<path d="M22.5458 10.4567C22.4441 10.4751 22.3434 10.499 22.2443 10.5285L22.3679 10.9744C22.4494 10.9496 22.5322 10.9295 22.6159 10.9143L22.5458 10.4567ZM23.2054 11.1511C23.2229 11.0578 23.2181 10.9615 23.1914 10.8704C23.1648 10.7794 23.117 10.6963 23.0523 10.6281C22.9876 10.56 22.9077 10.5088 22.8195 10.479C22.7314 10.4492 22.6375 10.4415 22.5458 10.4567L22.6174 10.9143C22.6368 10.9099 22.657 10.9107 22.6761 10.9166C22.6951 10.9226 22.7123 10.9334 22.726 10.9482C22.741 10.9657 22.7519 10.9865 22.7576 11.009C22.7634 11.0315 22.7639 11.0551 22.7592 11.0778L23.2054 11.1511ZM18.8699 22.5927L23.1934 11.1997L22.772 11.0315L18.4478 22.4245L18.8699 22.5927ZM19.0599 23.0718C18.9731 23.0348 18.9041 22.9641 18.8681 22.8752C18.8321 22.7862 18.8319 22.6864 18.8677 22.5973L18.45 22.4199C18.4094 22.5202 18.3885 22.6277 18.3884 22.7363C18.3884 22.8448 18.4093 22.9524 18.4499 23.0527C18.4905 23.153 18.55 23.2441 18.6251 23.3209C18.7001 23.3976 18.7892 23.4585 18.8873 23.5L19.0599 23.0718ZM19.5243 22.8751C19.4881 22.9641 19.4189 23.0348 19.3318 23.0717C19.2448 23.1086 19.147 23.1086 19.0599 23.0718L18.8873 23.4992C18.9853 23.5409 19.0903 23.5624 19.1965 23.5625C19.3026 23.5626 19.4077 23.5412 19.5057 23.4996C19.6038 23.4581 19.6928 23.3971 19.7678 23.3202C19.8428 23.2434 19.9022 23.1521 19.9427 23.0517L19.5243 22.8751ZM24.4614 9.96606L19.522 22.8789L19.9427 23.0479L24.8821 10.135L24.4614 9.96606ZM24.4659 9.95603C24.4655 9.95807 24.4655 9.96017 24.4659 9.96221L24.8843 10.1389L24.8896 10.125L24.4659 9.95603ZM25.2024 5.73507C25.2266 6.08303 25.2024 6.7635 25.0856 7.55122C24.9687 8.33894 24.7758 9.21152 24.4704 9.94986L24.8866 10.1304C25.2122 9.34268 25.4143 8.42689 25.5326 7.61834C25.651 6.80979 25.6834 6.09537 25.654 5.70267L25.2024 5.73507ZM25.2024 5.7181C25.2029 5.72375 25.2029 5.72942 25.2024 5.73507L25.6548 5.70267V5.67412L25.2024 5.7181ZM20.0007 0.406214C21.3748 0.406188 22.6931 0.962601 23.6678 1.95395C24.6424 2.94529 25.1941 4.29102 25.2024 5.69727H25.6548C25.6464 4.16825 25.047 2.70478 23.9876 1.62662C22.9282 0.548464 21.4948 -0.056719 20.0007 -0.0566951V0.406214ZM18.2412 0.718678C18.8057 0.511255 19.401 0.405535 20.0007 0.406214V-0.0566951C19.3481 -0.0577055 18.7002 0.0571527 18.0859 0.282772L18.2412 0.718678ZM18.104 0.278143C17.7225 0.386926 17.0885 0.675473 16.407 1.07126C15.6738 1.48772 14.9866 1.98384 14.3573 2.55103L14.6588 2.89358C15.2626 2.34967 15.9217 1.87374 16.6249 1.47399C17.2936 1.08823 17.8907 0.818204 18.2201 0.724079L18.104 0.278143ZM14.3618 2.54717L14.3505 2.5572L14.652 2.90284L14.6573 2.89821L14.3618 2.54717ZM14.3512 2.55643L2.07068 13.6663L2.37223 14.0134L14.6483 2.90361L14.3512 2.55643ZM2.06992 13.6663C1.99083 13.7386 1.92644 13.8262 1.88045 13.9241C1.83446 14.0219 1.80776 14.1281 1.80188 14.2365C1.796 14.3449 1.81105 14.4534 1.84618 14.5559C1.8813 14.6583 1.93582 14.7527 2.0066 14.8336L2.34358 14.525C2.28081 14.4531 2.24848 14.3587 2.25371 14.2625C2.25894 14.1663 2.3013 14.0761 2.37147 14.0119L2.06992 13.6663ZM2.0066 14.8336C2.14938 14.9968 2.34966 15.0953 2.56341 15.1075C2.77716 15.1196 2.98688 15.0444 3.14645 14.8984L2.8449 14.5535C2.77472 14.6177 2.68248 14.6508 2.58846 14.6455C2.49445 14.6401 2.40636 14.5968 2.34358 14.525L2.0066 14.8336ZM3.14645 14.8984L14.159 4.81465L13.8574 4.46902L2.8449 14.5504L3.14645 14.8984ZM14.1205 4.84474C14.1402 4.83291 14.1622 4.82579 14.1849 4.82392C14.2076 4.82205 14.2305 4.82548 14.2517 4.83394C14.2697 4.84259 14.2853 4.85575 14.2971 4.87221C14.3088 4.88866 14.3163 4.90787 14.3188 4.92807L14.7644 4.84551C14.7479 4.75174 14.7097 4.66341 14.6527 4.58803C14.5958 4.51265 14.522 4.45244 14.4375 4.41252C14.3529 4.37261 14.2603 4.35417 14.1673 4.35876C14.0743 4.36336 13.9838 4.39086 13.9034 4.43893L14.1205 4.84474ZM14.3188 4.92807C14.3445 5.11775 14.3571 5.30904 14.3565 5.50053L14.8088 5.49359C14.809 5.27676 14.7941 5.06019 14.7644 4.84551L14.3188 4.92807ZM14.799 5.72967C14.799 5.65252 14.799 5.58231 14.799 5.50979L14.3467 5.4905C14.3467 5.56765 14.3422 5.64943 14.3422 5.72967H14.799ZM20.0007 11.0531C18.6212 11.0531 17.2981 10.4923 16.3226 9.49393C15.3471 8.49558 14.799 7.14154 14.799 5.72967H14.3467C14.3467 7.26431 14.9424 8.7361 16.0027 9.82125C17.0631 10.9064 18.5012 11.516 20.0007 11.516V11.0531ZM22.2134 10.5493C21.5206 10.8799 20.7651 11.0496 20.0007 11.0462V11.5091C20.8323 11.5102 21.6539 11.3229 22.4063 10.9605L22.2134 10.5493ZM22.5835 10.6921L22.5481 10.4606L22.5835 10.6921ZM22.9846 11.1226L23.1956 11.2067L23.2039 11.1835L23.2077 11.1604L22.9846 11.1226ZM18.6581 22.5086L18.8669 22.5973L18.6581 22.5086ZM18.9732 23.2855L18.8865 23.4992L18.9732 23.2855ZM19.7324 22.9638L19.9412 23.0517L19.7324 22.9638ZM24.6747 10.0502L24.4659 9.96144L24.6747 10.0502ZM24.6793 10.0394L24.4712 9.94909L24.6793 10.0394ZM25.4286 5.71887L25.6548 5.70267L25.4286 5.71887ZM25.4286 5.6965H25.2024V5.71733L25.4286 5.6965ZM18.1628 0.501111L18.2231 0.724079H18.2314H18.2389L18.1628 0.501111ZM14.5095 2.72076L14.6603 2.89667L14.5095 2.72076ZM14.5013 2.72848L14.652 2.90207L14.5013 2.72848ZM2.2207 13.8383L2.06992 13.6647L2.2207 13.8383ZM2.17471 14.6793L2.0066 14.8336L2.17471 14.6793ZM2.99568 14.7263L2.8449 14.5535L2.99568 14.7263ZM14.0082 4.64183L13.8997 4.43893L13.877 4.45127L13.8574 4.46902L14.0082 4.64183ZM14.5359 4.8864L14.7621 4.84551L14.5359 4.8864ZM14.5774 5.49667L14.8036 5.5067V5.49359L14.5774 5.49667ZM22.3076 10.7515L22.2458 10.5285L22.2277 10.5339L22.2111 10.5424L22.3076 10.7515Z" fill="#2874AE"/>
<path d="M22.3076 10.7515C21.4808 11.1487 20.5695 11.326 19.658 11.267C18.7465 11.208 17.8643 10.9145 17.093 10.4138C16.3218 9.9131 15.6865 9.2213 15.246 8.40251C14.8055 7.58371 14.5739 6.66438 14.5729 5.72967C14.5729 5.65252 14.5729 5.57537 14.5774 5.49822C14.5778 5.29404 14.564 5.0901 14.5359 4.88795C14.5259 4.83048 14.5024 4.77638 14.4674 4.7303C14.4324 4.68422 14.387 4.64756 14.335 4.62348C14.283 4.5994 14.2261 4.58863 14.1692 4.5921C14.1123 4.59556 14.057 4.61316 14.0082 4.64338L2.99568 14.7232C2.93876 14.7753 2.87237 14.8154 2.8003 14.8412C2.72824 14.867 2.65191 14.8781 2.57567 14.8737C2.49944 14.8693 2.42479 14.8496 2.356 14.8157C2.2872 14.7819 2.2256 14.7344 2.17472 14.6762C2.12383 14.6179 2.08465 14.55 2.05943 14.4762C2.0342 14.4025 2.02341 14.3243 2.02768 14.2463C2.03195 14.1683 2.0512 14.0919 2.08431 14.0215C2.11743 13.9511 2.16378 13.8881 2.2207 13.836L14.5013 2.73002L14.5096 2.7223C15.7007 1.61441 17.4496 0.704019 18.1628 0.501111C18.9796 0.201265 19.8546 0.106183 20.7147 0.223837C21.5748 0.341492 22.3947 0.668453 23.1059 1.17731C23.817 1.68616 24.3985 2.36208 24.8018 3.14839C25.205 3.93471 25.4181 4.80849 25.4233 5.6965C25.4237 5.70395 25.4237 5.71142 25.4233 5.71887C25.4746 6.45953 25.305 8.5133 24.674 10.0394L24.6747 10.0502L19.7324 22.9638C19.6734 23.1096 19.5602 23.2254 19.4178 23.2858C19.2754 23.3462 19.1153 23.3463 18.9728 23.2859C18.8304 23.2255 18.7172 23.1097 18.6582 22.964C18.5991 22.8182 18.5991 22.6544 18.6581 22.5086L22.9823 11.1156C22.9942 11.0583 22.9923 10.9989 22.9767 10.9425C22.9611 10.8861 22.9323 10.8345 22.8927 10.7921C22.8532 10.7497 22.8042 10.7178 22.7499 10.6991C22.6957 10.6805 22.6378 10.6757 22.5812 10.6851C22.4889 10.7021 22.3976 10.7243 22.3076 10.7515Z" fill="white"/>
<path d="M21.1828 8.56426C21.262 8.48711 21.1677 8.35827 21.0622 8.39453C20.5028 8.58806 19.8995 8.60559 19.3303 8.44487C18.7611 8.28414 18.252 7.95254 17.8687 7.49283C17.4854 7.03313 17.2455 6.46643 17.1799 5.86584C17.1144 5.26526 17.2262 4.65834 17.5009 4.12342C17.5529 4.02235 17.4466 3.90816 17.3577 3.97606C17.0305 4.22215 16.7565 4.53461 16.5526 4.89393C16.3487 5.25325 16.2194 5.65171 16.1727 6.06446C16.126 6.4772 16.1629 6.89537 16.2812 7.29286C16.3994 7.69035 16.5965 8.05863 16.86 8.37471C17.1235 8.6908 17.4479 8.94791 17.8128 9.13C18.1777 9.31209 18.5754 9.41524 18.9811 9.43303C19.3867 9.45081 19.7915 9.38285 20.1704 9.23337C20.5492 9.0839 20.8938 8.85612 21.1828 8.56426Z" fill="#2874AE"/>
</g>
<defs>
<clipPath id="clip0_14_837">
<rect width="24" height="24" fill="white" transform="translate(2)"/>
</clipPath>
</defs>
</svg>
