<svg width="180" height="150" viewBox="0 0 180 150" fill="none" xmlns="http://www.w3.org/2000/svg">
<g clip-path="url(#clip0_5_59)">
<path fill-rule="evenodd" clip-rule="evenodd" d="M36.8967 135.568C36.5195 135.255 36.2077 134.871 35.9791 134.438C35.7506 134.005 35.6098 133.532 35.5649 133.045C35.5199 132.558 35.5716 132.066 35.717 131.599C35.8624 131.132 36.0987 130.698 36.4124 130.322L104.132 49.4477C104.768 48.6886 105.679 48.2122 106.666 48.1235C107.654 48.0347 108.636 48.3407 109.397 48.9743C110.158 49.6078 110.636 50.5169 110.725 51.5016C110.814 52.4864 110.507 53.466 109.872 54.2251L42.1372 135.094C41.504 135.848 40.5971 136.321 39.615 136.41C38.6329 136.499 37.6555 136.196 36.8967 135.568Z" fill="white"/>
<path fill-rule="evenodd" clip-rule="evenodd" d="M80.3998 146.929C79.9767 146.681 79.6066 146.353 79.3109 145.962C79.0151 145.571 78.7994 145.127 78.6762 144.653C78.5529 144.179 78.5245 143.686 78.5926 143.201C78.6606 142.716 78.8238 142.25 79.0727 141.828L127.25 60.1086C127.752 59.2566 128.573 58.6385 129.532 58.3903C130.491 58.1421 131.51 58.2841 132.364 58.785C133.218 59.2859 133.838 60.1048 134.087 61.0614C134.336 62.0181 134.194 63.0342 133.691 63.8861L85.5289 145.605C85.2804 146.029 84.9503 146.4 84.5576 146.696C84.1648 146.993 83.7172 147.209 83.2405 147.332C82.7638 147.455 82.2674 147.482 81.7798 147.413C81.2923 147.344 80.8233 147.18 80.3998 146.929Z" fill="white"/>
<path d="M151.965 65.4657C151.312 65.5805 150.665 65.7305 150.028 65.915L150.822 68.7071C151.346 68.5514 151.878 68.4256 152.416 68.3303L151.965 65.4657ZM156.203 69.8133C156.315 69.2288 156.285 68.626 156.113 68.056C155.942 67.4859 155.635 66.9655 155.219 66.5389C154.804 66.1122 154.291 65.7919 153.724 65.6051C153.158 65.4183 152.554 65.3705 151.965 65.4657L152.426 68.3303C152.55 68.3027 152.68 68.3078 152.802 68.345C152.924 68.3823 153.035 68.4504 153.123 68.5428C153.22 68.6521 153.289 68.7824 153.326 68.9233C153.363 69.0643 153.367 69.2119 153.336 69.3544L156.203 69.8133ZM128.349 141.451L156.126 70.1176L153.418 69.0645L125.637 140.398L128.349 141.451ZM129.57 144.451C129.012 144.219 128.569 143.776 128.338 143.22C128.106 142.663 128.105 142.038 128.335 141.48L125.651 140.369C125.39 140.997 125.256 141.67 125.256 142.35C125.256 143.03 125.39 143.703 125.651 144.331C125.912 144.959 126.294 145.53 126.776 146.01C127.258 146.491 127.831 146.872 128.461 147.132L129.57 144.451ZM132.553 143.219C132.321 143.777 131.876 144.219 131.317 144.45C130.757 144.681 130.129 144.681 129.57 144.451L128.461 147.127C129.09 147.388 129.765 147.523 130.447 147.523C131.129 147.524 131.804 147.39 132.434 147.13C133.064 146.869 133.636 146.488 134.118 146.007C134.599 145.525 134.981 144.954 135.241 144.325L132.553 143.219ZM164.272 62.3935L132.539 143.243L135.241 144.301L166.975 63.4514L164.272 62.3935ZM164.301 62.3307C164.299 62.3434 164.299 62.3566 164.301 62.3693L166.99 63.4755L167.023 63.3886L164.301 62.3307ZM169.033 35.9024C169.188 38.081 169.033 42.3416 168.283 47.2737C167.532 52.2057 166.292 57.6691 164.331 62.292L167.004 63.4224C169.096 58.4903 170.394 52.7564 171.155 47.6939C171.915 42.6315 172.123 38.1583 171.935 35.6995L169.033 35.9024ZM169.033 35.7961C169.036 35.8315 169.036 35.867 169.033 35.9024L171.939 35.6995V35.5208L169.033 35.7961ZM135.614 2.53744C144.442 2.53728 152.912 6.02108 159.174 12.2281C165.435 18.4351 168.98 26.861 169.033 35.6657H171.939C171.886 26.0923 168.035 16.9292 161.228 10.1786C154.422 3.4281 145.213 -0.361071 135.614 -0.360921V2.53744ZM124.31 4.49384C127.936 3.19512 131.761 2.53319 135.614 2.53744V-0.360921C131.421 -0.367247 127.259 0.351902 123.312 1.76455L124.31 4.49384ZM123.428 1.73556C120.978 2.41668 116.904 4.22332 112.526 6.70142C107.815 9.30898 103.4 12.4153 99.3568 15.9665L101.294 18.1113C105.173 14.7058 109.408 11.7259 113.926 9.223C118.222 6.8077 122.058 5.11698 124.174 4.52765L123.428 1.73556ZM99.3858 15.9424L99.3132 16.0052L101.251 18.1693L101.284 18.1403L99.3858 15.9424ZM99.318 16.0003L20.4196 85.561L22.357 87.7348L101.226 18.1741L99.318 16.0003ZM20.4148 85.561C19.9066 86.0141 19.493 86.5626 19.1975 87.1752C18.902 87.7878 18.7305 88.4525 18.6927 89.1313C18.6549 89.8101 18.7516 90.4896 18.9773 91.1311C19.203 91.7725 19.5532 92.3633 20.008 92.8697L22.1729 90.9375C21.7697 90.4878 21.562 89.8967 21.5956 89.2943C21.6292 88.6919 21.9013 88.1275 22.3521 87.7252L20.4148 85.561ZM20.008 92.8697C20.9253 93.8919 22.212 94.5088 23.5853 94.5849C24.9586 94.661 26.3059 94.19 27.3311 93.2755L25.3938 91.1162C24.9429 91.5185 24.3503 91.7256 23.7463 91.6921C23.1422 91.6586 22.5763 91.3871 22.1729 90.9375L20.008 92.8697ZM27.3311 93.2755L98.083 30.1395L96.1456 27.9754L25.3938 91.0969L27.3311 93.2755ZM97.836 30.3279C97.9622 30.2538 98.1036 30.2093 98.2495 30.1975C98.3955 30.1858 98.5423 30.2073 98.6787 30.2603C98.7944 30.3144 98.8946 30.3968 98.97 30.4999C99.0453 30.6029 99.0934 30.7232 99.1098 30.8496L101.972 30.3327C101.867 29.7456 101.621 29.1926 101.255 28.7206C100.89 28.2486 100.415 27.8716 99.8721 27.6217C99.3291 27.3718 98.7336 27.2563 98.1363 27.2851C97.5389 27.3139 96.9574 27.4861 96.4411 27.787L97.836 30.3279ZM99.1098 30.8496C99.2745 32.0373 99.3555 33.235 99.3519 34.4339L102.258 34.3904C102.259 33.0328 102.164 31.6769 101.972 30.3327L99.1098 30.8496ZM102.195 35.8686C102.195 35.3855 102.195 34.946 102.195 34.4919L99.289 34.3711C99.289 34.8542 99.2599 35.3662 99.2599 35.8686H102.195ZM135.614 69.1998C126.751 69.1998 118.251 65.6881 111.983 59.4373C105.716 53.1865 102.195 44.7086 102.195 35.8686H99.289C99.289 45.4773 103.116 54.6924 109.928 61.4868C116.741 68.2811 125.98 72.0981 135.614 72.0981V69.1998ZM149.829 66.0454C145.379 68.1154 140.525 69.1777 135.614 69.1563V72.0547C140.957 72.0615 146.235 70.8886 151.069 68.6201L149.829 66.0454ZM152.208 66.9391L151.98 65.4899L152.208 66.9391ZM154.784 69.6345L156.14 70.1611L156.194 70.0162L156.218 69.8712L154.784 69.6345ZM126.988 140.925L128.33 141.48L126.988 140.925ZM129.013 145.789L128.456 147.127L129.013 145.789ZM133.89 143.775L135.232 144.325L133.89 143.775ZM165.643 62.92L164.301 62.3645L165.643 62.92ZM165.672 62.8524L164.335 62.2872L165.672 62.8524ZM170.486 35.801L171.939 35.6995L170.486 35.801ZM170.486 35.6609H169.033V35.7913L170.486 35.6609ZM123.806 3.13161L124.194 4.52765H124.247H124.295L123.806 3.13161ZM100.335 17.0293L101.304 18.1306L100.335 17.0293ZM100.282 17.0776L101.251 18.1644L100.282 17.0776ZM21.3835 86.6383L20.4148 85.5514L21.3835 86.6383ZM21.088 91.9036L20.008 92.8697L21.088 91.9036ZM26.3625 92.1983L25.3938 91.1162L26.3625 92.1983ZM97.1143 29.0575L96.4169 27.787L96.2716 27.8643L96.1456 27.9754L97.1143 29.0575ZM100.505 30.5888L101.958 30.3327L100.505 30.5888ZM100.771 34.4098L102.224 34.4726V34.3904L100.771 34.4098ZM150.435 67.311L150.038 65.915L149.921 65.9488L149.815 66.0019L150.435 67.311Z" fill="#2874AE"/>
<path d="M150.435 67.3111C145.123 69.7983 139.268 70.9086 133.412 70.5391C127.556 70.1695 121.888 68.3321 116.933 65.197C111.978 62.0619 107.897 57.7304 105.067 52.6038C102.236 47.4771 100.749 41.7211 100.742 35.8687C100.742 35.3856 100.742 34.9026 100.771 34.4195C100.774 33.1411 100.685 31.8642 100.505 30.5985C100.44 30.2387 100.289 29.8999 100.064 29.6114C99.8395 29.3229 99.5475 29.0934 99.2137 28.9426C98.8799 28.7918 98.5144 28.7244 98.1486 28.7461C97.7828 28.7678 97.4278 28.878 97.1143 29.0672L26.3625 92.179C25.9967 92.5051 25.5702 92.7561 25.1072 92.9178C24.6442 93.0794 24.1538 93.1485 23.6641 93.1212C23.1743 93.0938 22.6947 92.9705 22.2527 92.7583C21.8107 92.5461 21.415 92.2491 21.088 91.8844C20.7611 91.5196 20.5094 91.0942 20.3473 90.6324C20.1853 90.1706 20.116 89.6816 20.1434 89.1931C20.1708 88.7046 20.2945 88.2263 20.5072 87.7854C20.72 87.3446 21.0178 86.9499 21.3835 86.6238L100.282 17.0873L100.335 17.039C107.988 10.1022 119.224 4.40212 123.806 3.13167C129.053 1.25428 134.676 0.658955 140.201 1.39561C145.727 2.13227 150.995 4.17943 155.564 7.36547C160.132 10.5515 163.869 14.7836 166.459 19.7068C169.05 24.6301 170.419 30.101 170.453 35.661C170.455 35.7076 170.455 35.7544 170.453 35.801C170.782 40.4384 169.692 53.2975 165.638 62.8524L165.643 62.9201L133.89 143.775C133.511 144.688 132.784 145.413 131.869 145.791C130.954 146.169 129.926 146.169 129.01 145.791C128.095 145.414 127.368 144.688 126.989 143.776C126.609 142.863 126.609 141.837 126.988 140.925L154.77 69.5911C154.846 69.2323 154.834 68.8602 154.734 68.5072C154.633 68.1542 154.448 67.831 154.194 67.5654C153.941 67.2999 153.626 67.1001 153.277 66.9834C152.928 66.8667 152.556 66.8366 152.193 66.8956C151.6 67.0021 151.013 67.1408 150.435 67.3111Z" fill="white"/>
<path d="M143.209 53.6163C143.717 53.1332 143.112 52.3265 142.434 52.5535C138.84 53.7653 134.964 53.875 131.307 52.8687C127.65 51.8624 124.379 49.7862 121.916 46.9079C119.454 44.0296 117.912 40.4814 117.491 36.721C117.07 32.9606 117.788 29.1606 119.554 25.8113C119.888 25.1785 119.205 24.4636 118.633 24.8887C116.532 26.4295 114.771 28.3859 113.461 30.6356C112.151 32.8854 111.32 35.3803 111.02 37.9645C110.72 40.5488 110.958 43.167 111.717 45.6558C112.477 48.1445 113.743 50.4504 115.436 52.4295C117.129 54.4086 119.213 56.0184 121.557 57.1585C123.902 58.2985 126.457 58.9444 129.063 59.0558C131.669 59.1671 134.27 58.7416 136.704 57.8057C139.138 56.8698 141.352 55.4437 143.209 53.6163Z" fill="#2874AE"/>
</g>
<defs>
<clipPath id="clip0_5_59">
<rect width="180" height="150" fill="white"/>
</clipPath>
</defs>
</svg>
