<svg width="180" height="79" viewBox="0 0 180 79" fill="none" xmlns="http://www.w3.org/2000/svg">
<g clip-path="url(#clip0_5_60)">
<path d="M136.428 38.8804V42.2232H122.217V38.8804H136.428ZM131.425 22.8911C131.761 22.8888 132.088 23.0032 132.35 23.2147C132.618 23.3998 132.817 23.6681 132.916 23.978L141.722 50.6864H137.522L130.577 28.3303C130.466 27.9246 130.359 27.5236 130.253 27.1227C130.146 26.7217 130.035 26.345 129.928 25.9923H128.8C128.688 26.345 128.582 26.7169 128.475 27.1227C128.369 27.5284 128.247 27.9246 128.112 28.3303L121.166 50.6864H117.006L125.811 23.9828C125.91 23.6743 126.108 23.4064 126.373 23.2196C126.636 23.007 126.965 22.8925 127.303 22.8959L131.425 22.8911ZM103.648 34.6536V37.7548H98.3203V34.6536H103.648ZM99.5311 22.8911V31.4316C99.5332 32.2382 99.4928 33.0445 99.41 33.8469C99.328 34.6199 99.1937 35.3865 99.008 36.1414C99.1388 36.895 99.2599 37.6582 99.3713 38.436C99.4744 39.1706 99.5278 39.9114 99.5311 40.6532V50.6864H95.5111V22.8911H99.5311ZM114.793 22.8911C114.231 24.4755 113.706 25.9392 113.218 27.2821C112.763 28.596 112.289 29.7795 111.804 30.8278C111.37 31.7636 110.843 32.6537 110.23 33.4846C109.704 34.2039 109.046 34.8183 108.293 35.2961C107.501 35.7475 106.62 36.0227 105.711 36.1028V36.2622C106.675 36.3464 107.609 36.6346 108.453 37.1075C109.268 37.5674 109.973 38.2007 110.516 38.9625C111.194 39.8442 111.764 40.8043 112.211 41.8222C112.72 42.9477 113.233 44.2665 113.746 45.7688C114.26 47.2711 114.875 48.8845 115.519 50.6815H111.281C110.526 48.5335 109.852 46.6544 109.261 45.0442C108.792 43.6443 108.184 42.2947 107.445 41.0155C106.922 40.0485 106.175 39.2203 105.266 38.6002C104.327 38.0063 103.229 37.7114 102.117 37.7548V34.6536C103.176 34.6882 104.219 34.3927 105.101 33.8082C105.995 33.152 106.74 32.314 107.285 31.3495C107.965 30.1698 108.532 28.9294 108.981 27.6444C109.517 26.2242 110.082 24.6397 110.676 22.8911H114.793ZM74.0792 22.8911L79.4312 38.721C79.4845 38.9121 79.6012 39.0796 79.7621 39.1962C79.923 39.3129 80.1188 39.3718 80.3175 39.3634H82.2548L82.9813 42.6289H79.1406C78.4552 42.6621 77.7769 42.4778 77.2032 42.1024C76.709 41.6988 76.3563 41.149 76.1958 40.5324L69.8558 22.8911H74.0792ZM91.6849 22.8911L84.3326 43.7544C83.9068 44.9708 83.3954 46.1556 82.8021 47.3001C82.3128 48.2767 81.6404 49.1507 80.8212 49.8748C80.0086 50.5433 79.0052 50.9388 77.9539 51.0052C77.3756 51.0278 76.7965 51.0132 76.22 50.9617C75.5707 50.9362 74.9237 50.87 74.2827 50.7637C73.6385 50.6526 73.0718 50.5463 72.5875 50.44L73.0331 47.4982C74.3505 47.6109 75.3999 47.6656 76.1813 47.6624C76.8007 47.6939 77.4183 47.5711 77.9782 47.3049C78.4705 47.0318 78.8764 46.6269 79.1502 46.1359C79.5644 45.3812 79.9284 44.6002 80.24 43.7979L81.1699 41.344L81.6543 39.8948L87.5486 22.8959L91.6849 22.8911ZM63.7387 38.8804V42.2232H49.4992V38.8804H63.7387ZM58.7306 22.8911C59.0689 22.8877 59.3978 23.0022 59.6606 23.2147C59.9287 23.3998 60.128 23.6681 60.2272 23.978L69.0034 50.6864H64.8042L57.8588 28.3352L57.5392 27.1275C57.4278 26.7217 57.3212 26.3498 57.2147 25.9972H56.0813C55.9748 26.3498 55.8682 26.7217 55.7617 27.1275C55.6551 27.5333 55.5292 27.9294 55.3984 28.3352L48.4336 50.6864H44.2926L53.093 23.9828C53.1957 23.6747 53.3942 23.4074 53.6596 23.2196C53.9224 23.007 54.2513 22.8925 54.5896 22.8959L58.7306 22.8911ZM40.6068 22.8911V50.6864H36.5432V22.8911H40.6068ZM37.013 34.1705V37.5133H23.9359V34.1705H37.013ZM24.2168 22.8911V50.6864H20.192V22.8911H24.2168Z" fill="white"/>
<path d="M121.937 1.28371C121.472 1.26389 121.009 1.35323 120.585 1.54455C120.239 1.73936 119.983 2.06203 119.873 2.44305C119.708 3.00734 119.634 3.5945 119.655 4.18207C119.636 4.76959 119.709 5.35651 119.873 5.92108C119.983 6.3021 120.239 6.62478 120.585 6.81958C121.009 7.0109 121.472 7.10025 121.937 7.08044C122.397 7.10146 122.855 7.012 123.273 6.81958C123.62 6.62478 123.875 6.3021 123.985 5.92108C124.149 5.35651 124.223 4.76959 124.203 4.18207C124.224 3.5945 124.151 3.00734 123.985 2.44305C123.875 2.06203 123.62 1.73936 123.273 1.54455C122.855 1.35213 122.397 1.26269 121.937 1.28371ZM121.937 0.48665C122.586 0.457141 123.233 0.581287 123.825 0.848945C124.304 1.09452 124.668 1.51518 124.843 2.02279C125.269 3.43094 125.269 4.9332 124.843 6.34135C124.668 6.84897 124.304 7.26961 123.825 7.51519C123.233 7.78285 122.586 7.90699 121.937 7.87748C121.282 7.90584 120.631 7.7818 120.033 7.51519C119.553 7.2678 119.184 6.84847 119.001 6.34135C118.595 4.93044 118.595 3.43371 119.001 2.02279C119.184 1.51567 119.553 1.09634 120.033 0.848945C120.631 0.582337 121.282 0.458292 121.937 0.48665ZM111.911 0.675051V7.69392H111.039V0.675051H111.911ZM113.785 0.588103C114.366 0.573607 114.946 0.627103 115.514 0.747507C115.879 0.815244 116.206 1.01687 116.43 1.31269C116.644 1.65996 116.746 2.06493 116.72 2.47204C116.749 2.88129 116.619 3.28581 116.357 3.6024C116.038 3.8895 115.624 4.04942 115.195 4.05164V4.09511C115.45 4.089 115.704 4.13467 115.941 4.22932C116.179 4.32398 116.394 4.46566 116.575 4.64581C116.857 5.02007 116.996 5.48259 116.967 5.95008C116.99 6.34585 116.894 6.73937 116.691 7.08044C116.472 7.36418 116.157 7.55964 115.805 7.63112C115.271 7.75077 114.724 7.80432 114.177 7.79053C113.703 7.79053 113.286 7.79053 112.928 7.79053C112.569 7.79053 112.247 7.78087 111.959 7.76155L111.029 7.71806L111.204 7.03696L112.25 7.06594H114.052C114.442 7.07468 114.831 7.04065 115.214 6.96449C115.463 6.91406 115.685 6.77498 115.839 6.57321C115.978 6.33695 116.044 6.06445 116.028 5.79066C116.05 5.58512 116.016 5.37744 115.931 5.18897C115.846 5.0005 115.712 4.83803 115.543 4.71826C115.045 4.48386 114.494 4.38392 113.945 4.42842H111.17V3.7618H113.945C114.311 3.76098 114.675 3.72703 115.035 3.66036C115.267 3.61734 115.475 3.48787 115.616 3.29806C115.755 3.07745 115.821 2.81898 115.805 2.55898C115.823 2.29226 115.751 2.02723 115.601 1.80541C115.438 1.60762 115.203 1.48253 114.948 1.45761C114.545 1.38175 114.136 1.34776 113.727 1.35617H112.637C112.314 1.35617 112.029 1.35617 111.78 1.35617C111.581 1.35392 111.382 1.3636 111.184 1.38515L111.01 0.689542C111.301 0.660558 111.572 0.641238 111.824 0.631577C112.075 0.621916 112.356 0.621916 112.666 0.631577C112.996 0.602593 113.369 0.588103 113.785 0.588103ZM109.426 0.660559V1.41413H103.188V0.646068L109.426 0.660559ZM106.782 0.660559V7.69392H105.866V0.660559H106.782ZM99.9041 0.48665C100.108 0.48665 100.335 0.496325 100.587 0.515647C100.845 0.535823 101.102 0.569681 101.357 0.617086C101.604 0.65224 101.847 0.710455 102.084 0.79098L101.938 1.39964C101.648 1.361 101.325 1.33202 100.97 1.31269C100.614 1.29337 100.314 1.28371 100.069 1.28371C99.5713 1.26548 99.0757 1.35445 98.6157 1.54455C98.4325 1.63234 98.2687 1.75576 98.134 1.90757C97.9992 2.05938 97.8963 2.23651 97.8311 2.42856C97.6548 2.99079 97.5762 3.57893 97.5986 4.16758C97.5774 4.76093 97.656 5.35363 97.8311 5.92108C97.965 6.31125 98.2466 6.63372 98.6157 6.81958C99.0782 6.9996 99.5726 7.08344 100.069 7.06594H100.621L101.376 7.02246C101.648 7.00313 101.9 6.97415 102.132 6.93551L102.219 7.55866C101.854 7.67035 101.48 7.74798 101.1 7.79053C100.711 7.84794 100.317 7.877 99.9234 7.87748C99.2584 7.90583 98.5957 7.7819 97.9861 7.51519C97.5027 7.27493 97.1288 6.86056 96.9399 6.35584C96.5108 4.93826 96.5108 3.42589 96.9399 2.0083C97.1231 1.50018 97.4987 1.08393 97.9861 0.848945C98.5833 0.586386 99.2325 0.462506 99.8847 0.48665H99.9041ZM90.4208 0.660559V7.69392H89.5199V0.660559H90.4208ZM92.3242 3.52994C92.8788 3.51084 93.433 3.57931 93.9661 3.73282C94.1447 3.78073 94.3117 3.8646 94.4566 3.97924C94.6015 4.09388 94.7214 4.23688 94.8089 4.39944C95.1479 5.216 95.1479 6.13344 94.8089 6.95C94.6233 7.26807 94.3211 7.50187 93.9661 7.60213C93.4783 7.73177 92.9742 7.79035 92.4695 7.77604C92.0239 7.77604 91.6365 7.77604 91.3071 7.77604C90.9778 7.77604 90.6823 7.76637 90.4208 7.74705L89.5635 7.70357L89.7379 7.00796L90.6823 7.03696C91.1473 7.03696 91.6994 7.03696 92.3387 7.03696C92.6912 7.04688 93.0433 7.00785 93.3849 6.92102C93.5011 6.89299 93.6102 6.84114 93.7053 6.76879C93.8004 6.69644 93.8793 6.60517 93.9371 6.50076C94.16 5.95243 94.16 5.33905 93.9371 4.79072C93.8827 4.68496 93.8068 4.59169 93.7142 4.51683C93.6216 4.44197 93.5144 4.38719 93.3994 4.35597C93.0502 4.25612 92.6873 4.2121 92.3242 4.22555H89.7088V3.52994H92.3242ZM87.0692 0.660559V7.69392H86.1392V0.660559H87.0692ZM86.8803 0.660559V1.41413H84.3666C84.1146 1.39301 83.8642 1.47103 83.6691 1.63152C83.5088 1.83584 83.4128 2.08292 83.393 2.34161C83.3446 2.78603 83.2865 3.24493 83.2187 3.71833C83.1509 4.19172 83.0782 4.65063 83.0007 5.09505C82.9219 5.50279 82.8001 5.9011 82.6375 6.28337C82.5391 6.55881 82.3914 6.81416 82.2016 7.03696C82.0197 7.2478 81.7974 7.42025 81.5477 7.54417C81.2743 7.67525 80.9785 7.75391 80.6759 7.77604L80.5597 7.06594C80.7726 6.99678 80.9773 6.90444 81.1699 6.7906C81.3225 6.69562 81.4556 6.57269 81.5623 6.4283C81.6676 6.29507 81.7555 6.14897 81.8238 5.99355C81.9473 5.7096 82.0399 5.41322 82.0999 5.10954C82.1774 4.7875 82.2403 4.44453 82.2888 4.08062C82.3372 3.71672 82.3808 3.37858 82.4195 3.06621L82.5212 2.21118C82.5519 1.78678 82.7222 1.38435 83.0056 1.06633C83.1706 0.924617 83.3621 0.817039 83.5692 0.749866C83.7762 0.682692 83.9946 0.657264 84.2116 0.675051L86.8803 0.660559ZM76.5252 0.48665C77.302 0.423797 78.078 0.617292 78.7337 1.03735C78.9753 1.23421 79.1669 1.48505 79.2932 1.76956C79.4194 2.05407 79.4766 2.36423 79.4602 2.67491C79.5017 3.18462 79.374 3.69379 79.097 4.12409C78.9453 4.30311 78.7524 4.44278 78.5348 4.53112C78.3172 4.61946 78.0813 4.65384 77.8474 4.63132H73.7354V3.90673H77.644C77.7836 3.92254 77.9248 3.8982 78.0509 3.83657C78.1771 3.77494 78.2829 3.6786 78.356 3.55892C78.4899 3.28949 78.5501 2.98952 78.5303 2.68942C78.5452 2.48462 78.5087 2.27933 78.4242 2.09211C78.3396 1.90489 78.2096 1.74162 78.046 1.61702C77.5968 1.35988 77.0803 1.24373 76.5639 1.28371C76.1038 1.26269 75.6454 1.35213 75.2271 1.54455C74.8835 1.73555 74.6281 2.0527 74.5152 2.42856C74.3616 2.9703 74.293 3.53245 74.3117 4.09511C74.2877 4.71343 74.3713 5.33122 74.5588 5.92108C74.6927 6.31125 74.9743 6.63372 75.3434 6.81958C75.7903 7.00077 76.2708 7.08476 76.7528 7.06594C77.179 7.06594 77.6101 7.05144 78.046 7.02246C78.4819 6.99347 78.8645 6.95 79.1939 6.89204L79.281 7.51519C79.0376 7.60774 78.7839 7.67098 78.5255 7.70357C78.2026 7.75188 77.8797 7.79053 77.5568 7.81952C77.2339 7.8485 76.9336 7.86299 76.6559 7.86299C76.0068 7.88839 75.3604 7.76443 74.767 7.5007C74.2802 7.24656 73.9031 6.82405 73.7063 6.31237C73.4705 5.61763 73.3622 4.88616 73.3867 4.15309C73.3583 3.41506 73.4666 2.67814 73.7063 1.97932C73.8879 1.48306 74.2513 1.07392 74.7234 0.834454C75.2897 0.583337 75.9059 0.464383 76.5252 0.48665ZM72.2339 0.660559V1.41413H66.0005V0.646068L72.2339 0.660559ZM69.5895 0.660559V7.69392H68.6741V0.660559H69.5895ZM63.9324 3.3995V4.09511L60.4888 4.12409C60.3395 4.11615 60.1901 4.13909 60.0501 4.19146C59.91 4.24384 59.7824 4.3245 59.6751 4.42842C59.4978 4.64944 59.4097 4.92854 59.4281 5.21098V5.81964C59.4152 5.98 59.4357 6.14127 59.4882 6.29338C59.5407 6.44549 59.6241 6.58517 59.7332 6.70365C59.9892 6.91477 60.3174 7.01865 60.6486 6.99347C60.9989 6.99708 61.3475 6.94323 61.6803 6.83407C62.0687 6.71321 62.4399 6.54273 62.7845 6.32686C63.1419 6.11154 63.4678 5.84821 63.7532 5.54429V6.24474C63.6138 6.42631 63.4509 6.58873 63.2689 6.7278C63.0318 6.91784 62.7791 7.08751 62.5133 7.235C62.2155 7.40655 61.8985 7.54275 61.5689 7.64079C61.2255 7.74771 60.8678 7.80147 60.5082 7.80019C60.1381 7.80773 59.7709 7.73349 59.4329 7.58281C59.1411 7.44559 58.8979 7.22325 58.7355 6.94518C58.5727 6.62189 58.4928 6.26339 58.503 5.90177V5.09021C58.4888 4.85993 58.5247 4.6293 58.6083 4.41417C58.6919 4.19904 58.8212 4.00451 58.9873 3.84393C59.3736 3.5249 59.8671 3.3643 60.3677 3.39468L63.9324 3.3995ZM62.1597 0.501141C62.5773 0.488697 62.9929 0.562719 63.3803 0.718524C63.7117 0.844239 63.9856 1.08649 64.1504 1.39964C64.343 1.7911 64.433 2.22487 64.4119 2.66042V7.69392H63.6854L63.5401 6.15779L63.482 6.02735V2.64593C63.5076 2.28201 63.3991 1.9213 63.1769 1.63152C63.0127 1.49527 62.8223 1.3941 62.6173 1.33428C62.4124 1.27445 62.1973 1.25724 61.9854 1.28371C61.5592 1.28371 61.0651 1.30303 60.5033 1.34168C59.9415 1.38032 59.3942 1.42862 58.8614 1.48659L58.7742 0.805472C59.0971 0.747504 59.441 0.699204 59.8059 0.660559C60.1707 0.621915 60.5582 0.583275 60.9683 0.54463C61.3783 0.505985 61.782 0.48665 62.1791 0.48665L62.1597 0.501141ZM56.0959 0.675051V7.69392H55.2144V0.660559L56.0959 0.675051ZM56.9967 7.63112V9.7904H56.3865L56.2847 7.63112H56.9967ZM56.9967 6.96449V7.69392H49.7317V6.95484L56.9967 6.96449ZM50.4291 7.63112L50.3274 9.7904H49.7171V7.63112H50.4291ZM55.9215 0.675051V1.41413H53.4368C53.3102 1.3972 53.1814 1.4087 53.0598 1.4478C52.9383 1.4869 52.827 1.55261 52.7341 1.64012C52.6413 1.72764 52.5692 1.83475 52.5232 1.95361C52.4772 2.07247 52.4584 2.20009 52.4682 2.32712C52.4324 2.98831 52.3547 3.64658 52.2357 4.298C52.1314 4.91088 51.9692 5.51254 51.7514 6.09499C51.5256 6.66547 51.2242 7.20323 50.8553 7.69392H50.0416C50.4199 7.16073 50.7275 6.5811 50.957 5.96939C51.176 5.36249 51.3381 4.73667 51.4414 4.09995C51.5481 3.46015 51.6209 2.81517 51.6593 2.16771C51.6548 1.74655 51.8166 1.34052 52.1098 1.03735C52.4399 0.755717 52.8679 0.615141 53.3012 0.646068L55.9215 0.675051ZM45.237 0.573612C45.8465 0.558838 46.4558 0.612303 47.0533 0.733016C47.4345 0.797172 47.7791 0.998202 48.022 1.2982C48.2463 1.63093 48.3536 2.02848 48.3271 2.42856C48.3537 2.83981 48.2411 3.24805 48.0074 3.5879C47.8545 3.74406 47.6713 3.86745 47.4689 3.95051C47.2666 4.03357 47.0493 4.07456 46.8305 4.07096V4.11444C47.3227 4.10942 47.7972 4.29668 48.1527 4.63615C48.4534 5.01841 48.5987 5.4996 48.5596 5.98388C48.5806 6.37228 48.4789 6.75747 48.269 7.08526C48.028 7.37558 47.6948 7.57501 47.3245 7.65044C46.7627 7.78091 46.1866 7.83934 45.61 7.82434C45.2031 7.82434 44.7624 7.80985 44.2877 7.78086C43.8131 7.75188 43.3675 7.70358 42.951 7.63595L43.0381 6.92585C43.3094 6.95484 43.6775 6.98382 44.1424 7.0128C44.6074 7.04178 45.0724 7.05144 45.5373 7.04178C46.0944 7.0882 46.6542 6.99349 47.1647 6.76643C47.3161 6.65783 47.4361 6.51134 47.5126 6.34172C47.5892 6.1721 47.6195 5.98536 47.6006 5.80031C47.6167 5.51736 47.5511 5.23573 47.4117 4.98878C47.2583 4.77717 47.0296 4.63202 46.7724 4.58301C46.3816 4.49537 45.9813 4.45643 45.5809 4.46708H44.0213V3.78596H45.5906C45.9662 3.79555 46.3417 3.76151 46.7094 3.68452C46.9395 3.63537 47.1421 3.50063 47.2761 3.30774C47.3941 3.08509 47.4494 2.83465 47.4359 2.58315C47.4567 2.31613 47.3849 2.05009 47.2325 1.82956C47.0557 1.63349 46.8125 1.50961 46.5496 1.48177C46.1133 1.40442 45.6704 1.37042 45.2273 1.38031C44.8689 1.38031 44.5057 1.38997 44.1376 1.4093C43.8408 1.4224 43.5449 1.45144 43.2513 1.49626L43.1641 0.78616C43.5281 0.710666 43.8972 0.662218 44.2684 0.641233C44.6365 0.586486 44.9658 0.559121 45.2564 0.559121L45.237 0.573612ZM41.0524 0.675051V7.69392H40.229V2.22567L40.2581 1.77643H40.229C40.1631 1.90581 40.0904 2.03158 40.011 2.15321C39.9239 2.28847 39.8415 2.40924 39.764 2.51551L35.7973 7.69392H35.0272V0.660559H35.8845V5.68922C35.8845 5.83414 35.8845 5.97905 35.8845 6.12397C35.8845 6.26889 35.8845 6.42991 35.8845 6.60703C35.962 6.47177 36.0443 6.33652 36.1315 6.20126C36.2092 6.07854 36.2967 5.96223 36.3931 5.85346L40.3307 0.679886L41.0524 0.675051Z" fill="white"/>
<path d="M97.9909 65.2893C98.1946 65.2737 98.3981 65.3227 98.5721 65.4294C98.6432 65.4656 98.7055 65.5167 98.7549 65.5793C98.8042 65.6418 98.8393 65.7143 98.8579 65.7917C98.893 65.9885 98.8711 66.1912 98.7949 66.3762L94.373 79.1869H93.041L97.1434 67.3665C97.2063 67.1926 97.2693 67.0331 97.3226 66.8834C97.3753 66.7192 97.4367 66.558 97.5066 66.4003H90.2416L90.1834 65.2748L97.9909 65.2893ZM83.4609 65.0477C84.2142 65.0353 84.9665 65.1082 85.7033 65.2651C86.2741 65.366 86.7896 65.6676 87.1563 66.1153C87.523 66.6596 87.6937 67.3119 87.6407 67.9654C87.6456 68.5394 87.5573 69.1104 87.3791 69.6562C87.1763 70.238 86.8909 70.7879 86.5315 71.2889C86.0752 71.9524 85.5752 72.585 85.0349 73.1825L80.797 77.9744L81.9497 77.9358C82.3517 77.9358 82.744 77.9358 83.117 77.9358H88.188V79.1869H79.1987V78.3802C79.1968 78.2724 79.2115 78.1648 79.2423 78.0614C79.2809 77.9547 79.342 77.8575 79.4215 77.7764L83.7418 72.8637C84.5007 72.0556 85.1652 71.1643 85.7227 70.2068C86.1273 69.5312 86.3368 68.7572 86.3281 67.9703C86.3392 67.551 86.1962 67.1421 85.9261 66.8206C85.6607 66.5641 85.3225 66.3954 84.9575 66.3375C84.4584 66.2517 83.9527 66.2113 83.4463 66.2168C83.0298 66.2168 82.6229 66.2168 82.2355 66.2602C81.848 66.3037 81.4266 66.3037 80.981 66.3617C80.5355 66.4197 80.0463 66.4921 79.4651 66.6032L79.344 65.5743C79.993 65.4245 80.5451 65.3183 81.0004 65.2507C81.4557 65.183 81.9013 65.1202 82.2936 65.0912C82.6859 65.0622 83.0782 65.0477 83.4802 65.0477H83.4609ZM76.3799 65.2893C76.585 65.2746 76.7897 65.3236 76.9659 65.4294C77.0362 65.4659 77.0978 65.5172 77.1463 65.5797C77.1948 65.6423 77.2291 65.7146 77.2468 65.7917C77.284 65.988 77.2638 66.1909 77.1887 66.3762L72.7861 79.1869H71.4542L75.5565 67.3616C75.6243 67.1877 75.6824 67.0283 75.7357 66.8786C75.789 66.7288 75.8519 66.5646 75.9197 66.3955H68.6547L68.5966 65.27L76.3799 65.2893ZM65.3854 65.2893V79.1869H64.0535V67.666C64.0535 67.4776 64.0535 67.2891 64.0535 67.1008C64.0535 66.9124 64.0874 66.7288 64.1116 66.5549L60.5808 67.6853L60.3774 66.7191L64.0341 65.27L65.3854 65.2893Z" fill="white"/>
<path d="M20.8652 73.1583H53.2286V71.7092H20.8652V73.1583ZM53.2286 73.1583C53.4213 73.1583 53.6061 73.082 53.7423 72.9461C53.8786 72.8102 53.9551 72.6259 53.9551 72.4338C53.9551 72.2416 53.8786 72.0573 53.7423 71.9214C53.6061 71.7855 53.4213 71.7092 53.2286 71.7092V73.1583ZM20.8652 71.7092C20.6726 71.7092 20.4878 71.7855 20.3515 71.9214C20.2153 72.0573 20.1387 72.2416 20.1387 72.4338C20.1387 72.6259 20.2153 72.8102 20.3515 72.9461C20.4878 73.082 20.6726 73.1583 20.8652 73.1583V71.7092Z" fill="white"/>
<path d="M108.356 73.1583H140.719V71.7092H108.356V73.1583ZM140.719 73.1583C140.912 73.1583 141.097 73.082 141.233 72.9461C141.369 72.8102 141.446 72.6259 141.446 72.4338C141.446 72.2416 141.369 72.0573 141.233 71.9214C141.097 71.7855 140.912 71.7092 140.719 71.7092V73.1583ZM108.356 71.7092C108.163 71.7092 107.978 71.7855 107.842 71.9214C107.706 72.0573 107.629 72.2416 107.629 72.4338C107.629 72.6259 107.706 72.8102 107.842 72.9461C107.978 73.082 108.163 73.1583 108.356 73.1583V71.7092Z" fill="white"/>
</g>
<defs>
<clipPath id="clip0_5_60">
<rect width="180" height="79" fill="white"/>
</clipPath>
</defs>
</svg>
